<svg width="24" height="24" viewBox="0 0 24 24" fill="none" xmlns="http://www.w3.org/2000/svg">
<path opacity="0.32" d="M1.57812 12.3333V14.4167C1.57812 17.5417 1.57812 22.75 8.86987 22.75H15.1199C22.4117 22.75 22.4117 17.5417 22.4117 14.4167V12.3333C22.4117 9.20833 22.4117 3.25 15.1199 3.25H8.86987C1.57812 3.25 1.57812 9.20833 1.57812 12.3333Z" fill="#712DE3"/>
<path fill-rule="evenodd" clip-rule="evenodd" d="M5 1.25C5.41421 1.25 5.75 1.58579 5.75 2V6C5.75 6.41421 5.41421 6.75 5 6.75C4.58579 6.75 4.25 6.41421 4.25 6V2C4.25 1.58579 4.58579 1.25 5 1.25Z" fill="#712DE3"/>
<path fill-rule="evenodd" clip-rule="evenodd" d="M19 1.25C19.4142 1.25 19.75 1.58579 19.75 2V6C19.75 6.41421 19.4142 6.75 19 6.75C18.5858 6.75 18.25 6.41421 18.25 6V2C18.25 1.58579 18.5858 1.25 19 1.25Z" fill="#712DE3"/>
<path fill-rule="evenodd" clip-rule="evenodd" d="M5.75 17C5.75 16.5858 6.08579 16.25 6.5 16.25H7.5C7.91421 16.25 8.25 16.5858 8.25 17C8.25 17.4142 7.91421 17.75 7.5 17.75H6.5C6.08579 17.75 5.75 17.4142 5.75 17Z" fill="#712DE3"/>
<path fill-rule="evenodd" clip-rule="evenodd" d="M5.75 13C5.75 12.5858 6.08579 12.25 6.5 12.25H7.5C7.91421 12.25 8.25 12.5858 8.25 13C8.25 13.4142 7.91421 13.75 7.5 13.75H6.5C6.08579 13.75 5.75 13.4142 5.75 13Z" fill="#712DE3"/>
<path fill-rule="evenodd" clip-rule="evenodd" d="M5.75 9C5.75 8.58579 6.08579 8.25 6.5 8.25H7.5C7.91421 8.25 8.25 8.58579 8.25 9C8.25 9.41421 7.91421 9.75 7.5 9.75H6.5C6.08579 9.75 5.75 9.41421 5.75 9Z" fill="#712DE3"/>
<path fill-rule="evenodd" clip-rule="evenodd" d="M10.75 17C10.75 16.5858 11.0858 16.25 11.5 16.25H12.5C12.9142 16.25 13.25 16.5858 13.25 17C13.25 17.4142 12.9142 17.75 12.5 17.75H11.5C11.0858 17.75 10.75 17.4142 10.75 17Z" fill="#712DE3"/>
<path fill-rule="evenodd" clip-rule="evenodd" d="M10.75 13C10.75 12.5858 11.0858 12.25 11.5 12.25H12.5C12.9142 12.25 13.25 12.5858 13.25 13C13.25 13.4142 12.9142 13.75 12.5 13.75H11.5C11.0858 13.75 10.75 13.4142 10.75 13Z" fill="#712DE3"/>
<path fill-rule="evenodd" clip-rule="evenodd" d="M10.75 9C10.75 8.58579 11.0858 8.25 11.5 8.25H12.5C12.9142 8.25 13.25 8.58579 13.25 9C13.25 9.41421 12.9142 9.75 12.5 9.75H11.5C11.0858 9.75 10.75 9.41421 10.75 9Z" fill="#712DE3"/>
<path fill-rule="evenodd" clip-rule="evenodd" d="M15.75 17C15.75 16.5858 16.0858 16.25 16.5 16.25H17.5C17.9142 16.25 18.25 16.5858 18.25 17C18.25 17.4142 17.9142 17.75 17.5 17.75H16.5C16.0858 17.75 15.75 17.4142 15.75 17Z" fill="#712DE3"/>
<path fill-rule="evenodd" clip-rule="evenodd" d="M15.75 13C15.75 12.5858 16.0858 12.25 16.5 12.25H17.5C17.9142 12.25 18.25 12.5858 18.25 13C18.25 13.4142 17.9142 13.75 17.5 13.75H16.5C16.0858 13.75 15.75 13.4142 15.75 13Z" fill="#712DE3"/>
<path fill-rule="evenodd" clip-rule="evenodd" d="M15.75 9C15.75 8.58579 16.0858 8.25 16.5 8.25H17.5C17.9142 8.25 18.25 8.58579 18.25 9C18.25 9.41421 17.9142 9.75 17.5 9.75H16.5C16.0858 9.75 15.75 9.41421 15.75 9Z" fill="#712DE3"/>
</svg>
