<svg width="20" height="20" viewBox="0 0 20 20" fill="none" xmlns="http://www.w3.org/2000/svg">
<path opacity="0.32" d="M1.66406 7.5013V10.8346C1.66406 12.6865 1.66406 16.4828 6.2937 16.4828C8.14555 16.4828 8.14555 18.3346 9.9974 18.3346C11.8492 18.3346 11.8492 16.4828 13.7011 16.4828C18.3307 16.4828 18.3307 12.6865 18.3307 10.8346V7.5013C18.3307 5.41797 18.3307 1.66797 11.6641 1.66797H8.33073C1.66406 1.66797 1.66406 5.41797 1.66406 7.5013Z" fill="#6A6A6A"/>
<path fill-rule="evenodd" clip-rule="evenodd" d="M6.875 7.5C6.875 7.15483 7.15483 6.875 7.5 6.875H12.5C12.8452 6.875 13.125 7.15483 13.125 7.5C13.125 7.84517 12.8452 8.125 12.5 8.125H7.5C7.15483 8.125 6.875 7.84517 6.875 7.5Z" fill="#6A6A6A"/>
<path fill-rule="evenodd" clip-rule="evenodd" d="M6.875 10.832C6.875 10.4869 7.15483 10.207 7.5 10.207H12.5C12.8452 10.207 13.125 10.4869 13.125 10.832C13.125 11.1772 12.8452 11.457 12.5 11.457H7.5C7.15483 11.457 6.875 11.1772 6.875 10.832Z" fill="#6A6A6A"/>
</svg>
