<svg width="24" height="25" viewBox="0 0 24 25" fill="none" xmlns="http://www.w3.org/2000/svg">
<path opacity="0.32" d="M2 10.8906V14.8906C2 17.8906 2.33333 21.8906 9 21.8906H15C22 21.8906 22 17.8906 22 14.8906V13.8906C22 10.8906 22.1684 7.89062 17 7.89062C13 7.89062 14 3.89062 9.00006 3.89062C2 3.89062 2 7.51566 2 10.8906Z" fill="#008C13"/>
<path fill-rule="evenodd" clip-rule="evenodd" d="M8.25 17.8906C8.25 17.4764 8.58579 17.1406 9 17.1406H15C15.4142 17.1406 15.75 17.4764 15.75 17.8906C15.75 18.3048 15.4142 18.6406 15 18.6406H9C8.58579 18.6406 8.25 18.3048 8.25 17.8906Z" fill="#008C13"/>
</svg>
