<svg width="24" height="24" viewBox="0 0 24 24" fill="none" xmlns="http://www.w3.org/2000/svg">
<path d="M21.5297 15.93C21.3697 15.66 20.9197 15.24 19.7997 15.44C19.1797 15.55 18.5497 15.6 17.9197 15.57C15.5897 15.47 13.4797 14.4 12.0097 12.75C10.7097 11.3 9.90971 9.40999 9.89971 7.36999C9.89971 6.22999 10.1197 5.12999 10.5697 4.08999C11.0097 3.07999 10.6997 2.54999 10.4797 2.32999C10.2497 2.09999 9.70971 1.77999 8.64971 2.21999C4.55971 3.93999 2.02971 8.03999 2.32971 12.43C2.62971 16.56 5.52971 20.09 9.36971 21.42C10.2897 21.74 11.2597 21.93 12.2597 21.97C12.4197 21.98 12.5797 21.99 12.7397 21.99C16.0897 21.99 19.2297 20.41 21.2097 17.72C21.8797 16.79 21.6997 16.2 21.5297 15.93Z" fill="black"/>
</svg>
