<svg width="13" height="13" viewBox="0 0 13 13" fill="none" xmlns="http://www.w3.org/2000/svg">
<path d="M2.9245 1.13733H10.0733C10.669 1.13733 11.1564 1.62474 11.1564 2.22048V3.41194C11.1564 3.84519 10.8856 4.38677 10.6148 4.65755L8.28607 6.71553C7.96113 6.98632 7.7445 7.52789 7.7445 7.96115V10.2899C7.7445 10.6149 7.52787 11.0481 7.25708 11.2106L6.49888 11.698C5.79483 12.1313 4.82 11.6438 4.82 10.7773V7.90699C4.82 7.52789 4.60337 7.04048 4.38674 6.76969L2.32877 4.6034C2.05798 4.33261 1.84135 3.84519 1.84135 3.52025V2.27463C1.84135 1.62474 2.32877 1.13733 2.9245 1.13733Z" stroke="black" stroke-width="0.81236" stroke-miterlimit="10" stroke-linecap="round" stroke-linejoin="round"/>
<path d="M5.91939 1.13733L3.24944 5.41576" stroke="black" stroke-width="0.81236" stroke-miterlimit="10" stroke-linecap="round" stroke-linejoin="round"/>
</svg>
