<svg width="20" height="20" viewBox="0 0 20 20" fill="none" xmlns="http://www.w3.org/2000/svg">
<g clip-path="url(#clip0_1165_14981)">
<path d="M19.999 10.2212C19.999 9.40134 19.931 8.80305 19.7836 8.18262H10.2031V11.8831H15.8267C15.7133 12.8027 15.1011 14.1876 13.7405 15.1182L13.7214 15.2421L16.7506 17.5353L16.9605 17.5558C18.8879 15.8163 19.999 13.2569 19.999 10.2212Z" fill="#4285F4"/>
<path d="M10.2055 19.971C12.9606 19.971 15.2735 19.0846 16.9629 17.5557L13.7429 15.1182C12.8812 15.7054 11.7248 16.1153 10.2055 16.1153C7.50712 16.1153 5.21689 14.3759 4.40048 11.9717L4.28082 11.9816L1.13104 14.3637L1.08984 14.4756C2.76783 17.7329 6.21455 19.971 10.2055 19.971Z" fill="#34A853"/>
<path d="M4.39905 11.9723C4.18363 11.3519 4.05897 10.6871 4.05897 10.0002C4.05897 9.31323 4.18363 8.64849 4.38772 8.02806L4.38201 7.89592L1.19276 5.47559L1.08841 5.52409C0.39683 6.87579 0 8.39369 0 10.0002C0 11.6067 0.39683 13.1245 1.08841 14.4762L4.39905 11.9723Z" fill="#FBBC05"/>
<path d="M10.2055 3.88391C12.1216 3.88391 13.4141 4.6927 14.1511 5.36859L17.0309 2.62089C15.2622 1.01439 12.9606 0.0283203 10.2055 0.0283203C6.21455 0.0283203 2.76783 2.26634 1.08984 5.52364L4.38915 8.02761C5.21689 5.6234 7.50712 3.88391 10.2055 3.88391Z" fill="#EB4335"/>
</g>
<defs>
<clipPath id="clip0_1165_14981">
<rect width="20" height="20" fill="white"/>
</clipPath>
</defs>
</svg>
