<svg width="24" height="24" viewBox="0 0 24 24" fill="none" xmlns="http://www.w3.org/2000/svg">
<path fill-rule="evenodd" clip-rule="evenodd" d="M12 6.99905C11.4477 6.99905 11 6.55134 11 5.99905C11 5.44677 11.4477 4.99805 12 4.99805C12.5523 4.99805 13 5.44577 13 5.99805C13 6.55034 12.5523 6.99905 12 6.99905Z" fill="black"/>
<path fill-rule="evenodd" clip-rule="evenodd" d="M12 13.001C11.4477 13.001 11 12.5533 11 12.001V12C11 11.4477 11.4477 11 12 11C12.5523 11 13 11.4477 13 12V12.001C13 12.5533 12.5523 13.001 12 13.001Z" fill="black"/>
<path fill-rule="evenodd" clip-rule="evenodd" d="M12 19.001C11.4477 19.001 11 18.5533 11 18.001C11 17.4488 11.4477 17 12 17C12.5523 17 13 17.4478 13 18C13 18.5523 12.5523 19.001 12 19.001Z" fill="black"/>
</svg>
