<svg width="20" height="20" viewBox="0 0 20 20" fill="none" xmlns="http://www.w3.org/2000/svg">
<path d="M6.99219 15.4082V6.94156C6.99219 6.60823 7.09219 6.28323 7.27552 6.00823L9.55052 2.6249C9.90885 2.08323 10.8005 1.6999 11.5589 1.98323C12.3755 2.25823 12.9172 3.1749 12.7422 3.99156L12.3089 6.71656C12.2755 6.96656 12.3422 7.19156 12.4839 7.36656C12.6255 7.5249 12.8339 7.6249 13.0589 7.6249H16.4839C17.1422 7.6249 17.7089 7.89156 18.0422 8.35823C18.3589 8.80823 18.4172 9.39156 18.2089 9.98323L16.1589 16.2249C15.9005 17.2582 14.7755 18.0999 13.6589 18.0999H10.4089C9.85052 18.0999 9.06719 17.9082 8.70885 17.5499L7.64219 16.7249C7.23385 16.4166 6.99219 15.9249 6.99219 15.4082Z" fill="#6A6A6A"/>
<path d="M4.34297 5.31665H3.48464C2.19297 5.31665 1.66797 5.81665 1.66797 7.04998V15.4333C1.66797 16.6667 2.19297 17.1667 3.48464 17.1667H4.34297C5.63464 17.1667 6.15964 16.6667 6.15964 15.4333V7.04998C6.15964 5.81665 5.63464 5.31665 4.34297 5.31665Z" fill="#6A6A6A"/>
</svg>
