<svg width="14" height="14" viewBox="0 0 14 14" fill="none" xmlns="http://www.w3.org/2000/svg">
<path opacity="0.4" d="M11.6083 7.875H2.39167C1.51667 7.875 1.16667 8.24833 1.16667 9.17583V11.5325C1.16667 12.46 1.51667 12.8333 2.39167 12.8333H11.6083C12.4833 12.8333 12.8333 12.46 12.8333 11.5325V9.17583C12.8333 8.24833 12.4833 7.875 11.6083 7.875Z" fill="#292D32"/>
<path d="M11.6083 1.16663H2.39167C1.51667 1.16663 1.16667 1.53996 1.16667 2.46746V4.82413C1.16667 5.75163 1.51667 6.12496 2.39167 6.12496H11.6083C12.4833 6.12496 12.8333 5.75163 12.8333 4.82413V2.46746C12.8333 1.53996 12.4833 1.16663 11.6083 1.16663Z" fill="#292D32"/>
</svg>
