<svg width="140" height="29" viewBox="0 0 140 29" fill="none" xmlns="http://www.w3.org/2000/svg">
<path d="M36.399 11.68V13.6H34.359V19.18C34.359 19.5133 34.4457 19.7467 34.619 19.88C34.8057 20.0133 35.1124 20.08 35.539 20.08H36.399V22C35.8524 22.0533 35.4124 22.08 35.079 22.08C33.959 22.08 33.139 21.8733 32.619 21.46C32.1124 21.0333 31.859 20.36 31.859 19.44V13.6H30.259V11.68H31.859V8.68H34.359V11.68H36.399ZM44.0392 13.02V7.76H46.5592V22H44.1192V20.56C43.3592 21.68 42.2725 22.24 40.8592 22.24C39.4325 22.24 38.3058 21.7467 37.4792 20.76C36.6392 19.7733 36.2192 18.4667 36.2192 16.84C36.2192 15.1867 36.6392 13.8733 37.4792 12.9C38.2925 11.9267 39.4192 11.44 40.8592 11.44C42.2458 11.44 43.3058 11.9667 44.0392 13.02ZM38.7992 16.92C38.7992 17.9867 39.0325 18.7933 39.4992 19.34C39.9658 19.8867 40.6125 20.16 41.4392 20.16C42.2658 20.16 42.9192 19.8733 43.3992 19.3C43.8658 18.7267 44.0992 17.9067 44.0992 16.84C44.0992 15.7733 43.8658 14.9533 43.3992 14.38C42.9325 13.8067 42.2792 13.52 41.4392 13.52C40.6258 13.52 39.9792 13.82 39.4992 14.42C39.0325 15.02 38.7992 15.8533 38.7992 16.92ZM53.337 14.28L54.177 11.68H56.817L52.837 22.84C52.4103 24.0133 51.877 24.82 51.237 25.26C50.5837 25.7133 49.637 25.94 48.397 25.94C47.9837 25.94 47.617 25.92 47.297 25.88V23.9H48.257C48.8037 23.9 49.2237 23.7467 49.517 23.44C49.8103 23.1333 49.957 22.7333 49.957 22.24C49.957 21.7467 49.797 21.0533 49.477 20.16L46.477 11.68H49.197L50.037 14.26C50.6237 16.1 51.1703 18.02 51.677 20.02C52.077 18.5133 52.6303 16.6 53.337 14.28ZM63.8184 13.1V11.68H66.2584V21.66C66.2584 23.06 65.8117 24.16 64.9184 24.96C64.0384 25.76 62.7851 26.16 61.1584 26.16C59.7184 26.16 58.5851 25.84 57.7584 25.2C56.9451 24.56 56.4984 23.68 56.4184 22.56H58.8984C59.0184 23.6667 59.7851 24.22 61.1984 24.22C62.0251 24.22 62.6517 24.0067 63.0784 23.58C63.5184 23.1533 63.7384 22.5333 63.7384 21.72V20.42C62.9917 21.4467 61.9384 21.96 60.5784 21.96C59.1784 21.96 58.0517 21.4733 57.1984 20.5C56.3451 19.5533 55.9184 18.2867 55.9184 16.7C55.9184 15.1 56.3451 13.8267 57.1984 12.88C58.0384 11.92 59.1584 11.44 60.5584 11.44C62.0117 11.44 63.0984 11.9933 63.8184 13.1ZM61.1384 19.88C61.9784 19.88 62.6317 19.6 63.0984 19.04C63.5651 18.48 63.7984 17.7 63.7984 16.7C63.7984 15.7 63.5651 14.92 63.0984 14.36C62.6317 13.8 61.9784 13.52 61.1384 13.52C60.3251 13.52 59.6784 13.8067 59.1984 14.38C58.7317 14.94 58.4984 15.72 58.4984 16.72C58.4984 17.7067 58.7317 18.48 59.1984 19.04C59.6784 19.6 60.3251 19.88 61.1384 19.88ZM77.3325 16.84C77.3325 18.4667 76.8525 19.7733 75.8925 20.76C74.9325 21.7467 73.6658 22.24 72.0925 22.24C70.5191 22.24 69.2525 21.7467 68.2925 20.76C67.3191 19.7867 66.8325 18.48 66.8325 16.84C66.8325 15.2 67.3191 13.8933 68.2925 12.92C69.2525 11.9333 70.5191 11.44 72.0925 11.44C73.6658 11.44 74.9325 11.9267 75.8925 12.9C76.8525 13.8733 77.3325 15.1867 77.3325 16.84ZM70.1125 19.3C70.5925 19.8733 71.2525 20.16 72.0925 20.16C72.9325 20.16 73.5858 19.8733 74.0525 19.3C74.5325 18.7133 74.7725 17.8933 74.7725 16.84C74.7725 15.7867 74.5325 14.9733 74.0525 14.4C73.5858 13.8133 72.9325 13.52 72.0925 13.52C71.2525 13.52 70.5925 13.8067 70.1125 14.38C69.6458 14.9533 69.4125 15.7733 69.4125 16.84C69.4125 17.9067 69.6458 18.7267 70.1125 19.3ZM87.0764 22H84.5564C84.4364 21.7867 84.343 21.3667 84.2764 20.74C83.583 21.74 82.4764 22.24 80.9564 22.24C79.823 22.24 78.9164 21.9667 78.2364 21.42C77.5697 20.8733 77.2364 20.1133 77.2364 19.14C77.2364 17.26 78.5564 16.1867 81.1964 15.92L82.7564 15.78C83.2764 15.7133 83.6497 15.5933 83.8764 15.42C84.103 15.2333 84.2164 14.96 84.2164 14.6C84.2164 14.16 84.0697 13.84 83.7764 13.64C83.4964 13.4267 83.0164 13.32 82.3364 13.32C81.603 13.32 81.0764 13.4467 80.7564 13.7C80.4364 13.94 80.2497 14.36 80.1964 14.96H77.7164C77.863 12.6133 79.4097 11.44 82.3564 11.44C85.223 11.44 86.6564 12.4733 86.6564 14.54V20.04C86.6564 20.9467 86.7964 21.6 87.0764 22ZM81.5564 20.44C82.343 20.44 82.983 20.2267 83.4764 19.8C83.9697 19.36 84.2164 18.7333 84.2164 17.92V16.98C83.9764 17.1933 83.583 17.3333 83.0364 17.4L81.6764 17.56C81.0097 17.64 80.5297 17.8 80.2364 18.04C79.9564 18.2667 79.8164 18.6 79.8164 19.04C79.8164 19.48 79.963 19.8267 80.2564 20.08C80.563 20.32 80.9964 20.44 81.5564 20.44ZM90.039 22H87.519V7.76H90.039V22ZM95.1298 22.28C92.1165 22.28 90.5431 21.0933 90.4098 18.72H92.8698C92.9365 19.36 93.1431 19.8133 93.4898 20.08C93.8498 20.3467 94.4098 20.48 95.1698 20.48C96.5298 20.48 97.2098 20.0667 97.2098 19.24C97.2098 18.8667 97.0631 18.58 96.7698 18.38C96.4765 18.18 95.9498 18.0133 95.1898 17.88L94.0098 17.68C91.7565 17.3067 90.6298 16.2667 90.6298 14.56C90.6298 13.5867 91.0031 12.8267 91.7498 12.28C92.4965 11.72 93.5498 11.44 94.9098 11.44C97.8565 11.44 99.3765 12.6067 99.4698 14.94H97.0898C97.0631 14.3267 96.8698 13.8933 96.5098 13.64C96.1498 13.3733 95.6165 13.24 94.9098 13.24C93.7098 13.24 93.1098 13.64 93.1098 14.44C93.1098 14.7867 93.2431 15.06 93.5098 15.26C93.7765 15.4467 94.2165 15.5933 94.8298 15.7L96.1298 15.9C97.3831 16.1267 98.2898 16.4867 98.8498 16.98C99.4231 17.4733 99.7098 18.16 99.7098 19.04C99.7098 20.08 99.3098 20.88 98.5098 21.44C97.7098 22 96.5831 22.28 95.1298 22.28ZM102.73 22H99.7903V19.14H102.73V22ZM107.597 22.24C106.077 22.24 104.843 21.7467 103.897 20.76C102.963 19.7867 102.497 18.48 102.497 16.84C102.497 15.1867 102.963 13.8733 103.897 12.9C104.817 11.9267 106.05 11.44 107.597 11.44C108.943 11.44 110.043 11.8 110.897 12.52C111.75 13.2267 112.25 14.1867 112.397 15.4H109.877C109.757 14.8 109.497 14.34 109.097 14.02C108.697 13.7 108.197 13.54 107.597 13.54C106.81 13.54 106.19 13.8267 105.737 14.4C105.297 14.96 105.077 15.7733 105.077 16.84C105.077 17.9067 105.303 18.7267 105.757 19.3C106.21 19.86 106.823 20.14 107.597 20.14C108.21 20.14 108.723 19.9733 109.137 19.64C109.563 19.2933 109.823 18.8 109.917 18.16H112.437C112.303 19.4 111.797 20.3933 110.917 21.14C110.037 21.8733 108.93 22.24 107.597 22.24ZM122.895 16.84C122.895 18.4667 122.415 19.7733 121.455 20.76C120.495 21.7467 119.228 22.24 117.655 22.24C116.082 22.24 114.815 21.7467 113.855 20.76C112.882 19.7867 112.395 18.48 112.395 16.84C112.395 15.2 112.882 13.8933 113.855 12.92C114.815 11.9333 116.082 11.44 117.655 11.44C119.228 11.44 120.495 11.9267 121.455 12.9C122.415 13.8733 122.895 15.1867 122.895 16.84ZM115.675 19.3C116.155 19.8733 116.815 20.16 117.655 20.16C118.495 20.16 119.148 19.8733 119.615 19.3C120.095 18.7133 120.335 17.8933 120.335 16.84C120.335 15.7867 120.095 14.9733 119.615 14.4C119.148 13.8133 118.495 13.52 117.655 13.52C116.815 13.52 116.155 13.8067 115.675 14.38C115.208 14.9533 114.975 15.7733 114.975 16.84C114.975 17.9067 115.208 18.7267 115.675 19.3ZM135.256 11.44C136.389 11.44 137.269 11.7733 137.896 12.44C138.536 13.1067 138.856 14.02 138.856 15.18V22H136.336V15.58C136.336 14.2733 135.743 13.62 134.556 13.62C133.916 13.62 133.396 13.8533 132.996 14.32C132.609 14.7733 132.416 15.44 132.416 16.32V22H129.916V15.58C129.916 14.2733 129.316 13.62 128.116 13.62C127.489 13.62 126.976 13.8533 126.576 14.32C126.189 14.7733 125.996 15.44 125.996 16.32V22H123.476V11.68H125.916V13.16C126.623 12.0133 127.603 11.44 128.856 11.44C130.429 11.44 131.496 12.08 132.056 13.36C132.829 12.08 133.896 11.44 135.256 11.44Z" fill="#262626"/>
<path d="M19.5653 20.5464C20.3248 21.3059 21.5757 21.3137 22.1705 20.4195C22.8762 19.3586 23.3718 18.1649 23.6228 16.903C24.001 15.0018 23.8069 13.031 23.0651 11.2401C22.3232 9.44909 21.067 7.91833 19.4551 6.84134C17.8433 5.76435 15.9483 5.1895 14.0098 5.1895C12.0712 5.1895 10.1762 5.76435 8.56441 6.84134C6.95258 7.91833 5.69631 9.44909 4.95447 11.2401C4.21262 13.031 4.01853 15.0018 4.39671 16.903C4.64771 18.1649 5.14332 19.3586 5.84901 20.4195C6.44385 21.3137 7.69478 21.3059 8.45421 20.5464L12.6347 16.366C13.3941 15.6065 14.6254 15.6065 15.3848 16.366L19.5653 20.5464Z" fill="#163300"/>
<path d="M17.8322 21.3985C18.5916 22.1579 18.599 23.4168 17.6696 23.9551C17.3852 24.1199 17.0895 24.266 16.7845 24.3924C15.8785 24.7676 14.9074 24.9608 13.9268 24.9608C12.9461 24.9608 11.975 24.7676 11.069 24.3924C10.764 24.266 10.4684 24.1199 10.1839 23.9551C9.25454 23.4168 9.26192 22.1579 10.0214 21.3985L12.5517 18.8682C13.3111 18.1087 14.5424 18.1087 15.3018 18.8682L17.8322 21.3985Z" fill="#163300"/>
<circle cx="14.0093" cy="14.9907" r="12.0184" stroke="#9FE870" stroke-width="1.94465"/>
</svg>
