<svg width="24" height="24" viewBox="0 0 24 24" fill="none" xmlns="http://www.w3.org/2000/svg">
<path d="M1.5 17.3571V18.6429C1.5 19.9286 1.5 22.5 5.35714 22.5H6.64286C10.5 22.5 10.5 19.9286 10.5 18.6429V17.3571C10.5 16.0714 10.5 13.5 6.64286 13.5H5.35714C1.5 13.5 1.5 16.0714 1.5 17.3571Z" fill="#3A89FE"/>
<path opacity="0.32" d="M1.5 5.35714V6.64286C1.5 7.92857 1.5 10.5 5.35714 10.5H6.64286C10.5 10.5 10.5 7.92857 10.5 6.64286V5.35714C10.5 4.07143 10.5 1.5 6.64286 1.5H5.35714C1.5 1.5 1.5 4.07143 1.5 5.35714Z" fill="#3A89FE"/>
<path d="M13.5 5.35714V6.64286C13.5 7.92857 13.5 10.5 17.3571 10.5H18.6429C22.5 10.5 22.5 7.92857 22.5 6.64286V5.35714C22.5 4.07143 22.5 1.5 18.6429 1.5H17.3571C13.5 1.5 13.5 4.07143 13.5 5.35714Z" fill="#3A89FE"/>
<path opacity="0.32" d="M13.5 17.3571V18.6429C13.5 19.9286 13.5 22.5 17.3571 22.5H18.6429C22.5 22.5 22.5 19.9286 22.5 18.6429V17.3571C22.5 16.0714 22.5 13.5 18.6429 13.5H17.3571C13.5 13.5 13.5 16.0714 13.5 17.3571Z" fill="#3A89FE"/>
</svg>
