<svg width="31" height="31" viewBox="0 0 31 31" fill="none" xmlns="http://www.w3.org/2000/svg">
<rect x="0.159677" y="0.159677" width="30.3387" height="30.3387" rx="15.1694" fill="#D9D9D9" fill-opacity="0.17" stroke="#EBEBEB" stroke-width="0.319355"/>
<path fill-rule="evenodd" clip-rule="evenodd" d="M11.666 15.0003C11.666 15.3685 11.3676 15.667 10.9994 15.667C10.6312 15.667 10.332 15.3685 10.332 15.0003C10.332 14.6321 10.6305 14.3337 10.9987 14.3337C11.3669 14.3337 11.666 14.6321 11.666 15.0003Z" fill="black"/>
<path fill-rule="evenodd" clip-rule="evenodd" d="M15.668 15.0003C15.668 15.3685 15.3695 15.667 15.0013 15.667L15.0007 15.667C14.6325 15.667 14.334 15.3685 14.334 15.0003C14.334 14.6321 14.6325 14.3337 15.0007 14.3337L15.0013 14.3337C15.3695 14.3337 15.668 14.6321 15.668 15.0003Z" fill="black"/>
<path fill-rule="evenodd" clip-rule="evenodd" d="M19.668 15.0003C19.668 15.3685 19.3695 15.667 19.0013 15.667C18.6332 15.667 18.334 15.3685 18.334 15.0003C18.334 14.6321 18.6325 14.3337 19.0007 14.3337C19.3689 14.3337 19.668 14.6321 19.668 15.0003Z" fill="black"/>
</svg>
