<svg width="16" height="16" viewBox="0 0 16 16" fill="none" xmlns="http://www.w3.org/2000/svg">
<path d="M10.9466 5.3C12.5733 6.92666 12.5733 9.56664 10.9466 11.1933C9.31994 12.82 6.67992 12.82 5.05325 11.1933C3.42659 9.56664 3.42659 6.92666 5.05325 5.3C6.67992 3.67333 9.31994 3.67333 10.9466 5.3Z" fill="#292D32"/>
<path opacity="0.4" d="M5.49994 14.9267C5.43994 14.9267 5.37328 14.9133 5.31328 14.8933C3.81328 14.2933 2.59994 13.2333 1.7866 11.8333C0.999937 10.4667 0.686606 8.92001 0.893273 7.34667C0.926606 7.07334 1.1866 6.87999 1.45327 6.91332C1.7266 6.94666 1.91993 7.20001 1.8866 7.47334C1.71327 8.82001 1.97995 10.1533 2.65328 11.3267C3.34662 12.5267 4.39327 13.44 5.67993 13.9533C5.93327 14.06 6.05994 14.3466 5.95994 14.6066C5.88661 14.8066 5.69327 14.9267 5.49994 14.9267Z" fill="#292D32"/>
<path opacity="0.4" d="M3.89998 3.48665C3.75332 3.48665 3.60665 3.42 3.50665 3.29334C3.33332 3.07334 3.37332 2.76001 3.59332 2.59334C4.86666 1.60001 6.38665 1.07332 7.99998 1.07332C9.57331 1.07332 11.0733 1.58 12.3333 2.54C12.5533 2.70667 12.5933 3.01999 12.4267 3.23999C12.26 3.45999 11.9466 3.5 11.7266 3.33333C10.6466 2.50667 9.35998 2.07332 7.99998 2.07332C6.61331 2.07332 5.29998 2.52667 4.20665 3.38001C4.11331 3.45334 4.00665 3.48665 3.89998 3.48665Z" fill="#292D32"/>
<path opacity="0.4" d="M10.5001 14.9267C10.3001 14.9267 10.1134 14.8066 10.0334 14.6133C9.93338 14.36 10.0534 14.0667 10.3134 13.96C11.6001 13.44 12.6467 12.5333 13.3401 11.3333C14.0201 10.16 14.2867 8.82664 14.1067 7.47997C14.0734 7.20664 14.2667 6.95333 14.5401 6.92C14.8067 6.88666 15.0667 7.08001 15.1001 7.35335C15.3001 8.92001 14.9934 10.4733 14.2067 11.84C13.4001 13.24 12.1801 14.2933 10.6801 14.9C10.6267 14.9133 10.5667 14.9267 10.5001 14.9267Z" fill="#292D32"/>
</svg>
