<svg width="24" height="24" viewBox="0 0 24 24" fill="none" xmlns="http://www.w3.org/2000/svg">
<path d="M3 8.5C3 10.9853 5.01472 13 7.5 13C9.98528 13 12 10.9853 12 8.5C12 6.01472 9.98528 4 7.5 4C5.01472 4 3 6.01472 3 8.5Z" fill="#9FE870"/>
<path fill-rule="evenodd" clip-rule="evenodd" d="M12.8359 11.1169C13.2576 10.3387 13.4971 9.44731 13.4971 8.5C13.4971 7.55269 13.2576 6.66132 12.8359 5.88313C13.0766 5.54692 13.3625 5.24525 13.6847 4.98698C13.8617 4.84506 14.0497 4.71625 14.2472 4.60202C14.9091 4.21914 15.6775 4 16.4972 4C18.9825 4 20.9972 6.01472 20.9972 8.5C20.9972 10.9853 18.9825 13 16.4972 13C15.6775 13 14.9091 12.7809 14.2472 12.398C14.0497 12.2837 13.8617 12.1549 13.6847 12.013C13.3625 11.7548 13.0766 11.4531 12.8359 11.1169Z" fill="#9FE870"/>
<path opacity="0.32" fill-rule="evenodd" clip-rule="evenodd" d="M4.50168 13.4086C5.37469 13.9431 6.40136 14.2512 7.5 14.2512C8.60557 14.2512 9.63827 13.9392 10.5148 13.3984C11.6791 14.1031 12.3691 15.2088 12.7782 16.3209C13.3736 18.161 12.7205 20.0012 11.4142 20.0012H3.57692C2.27065 20.0012 1.61763 18.161 2.23442 16.3209C2.64908 15.2141 3.34243 14.1137 4.50168 13.4086Z" fill="#9FE870"/>
<path opacity="0.32" fill-rule="evenodd" clip-rule="evenodd" d="M13.5294 20.0012H20.4163C21.7226 20.0012 22.3757 18.161 21.7803 16.3208C21.3713 15.2087 20.6812 14.1031 19.5169 13.3984C18.6404 13.9392 17.6077 14.2512 16.5021 14.2512C15.4035 14.2512 14.3768 13.9431 13.5038 13.4085C13.2799 13.5447 13.0733 13.6957 12.8828 13.8586C13.3806 14.5249 13.7402 15.2773 14.0001 16.0322C14.4823 17.6249 14.2438 19.2177 13.5294 20.0012Z" fill="#9FE870"/>
</svg>
