<svg width="16" height="16" viewBox="0 0 16 16" fill="none" xmlns="http://www.w3.org/2000/svg">
<path d="M14.6483 12.2204C14.6483 12.4604 14.595 12.7071 14.4816 12.9471C14.3683 13.1871 14.2216 13.4137 14.0283 13.6271C13.7016 13.9871 13.3416 14.2471 12.935 14.4137C12.535 14.5804 12.1016 14.6671 11.635 14.6671C10.955 14.6671 10.2283 14.5071 9.46163 14.1804C8.69496 13.8537 7.92829 13.4137 7.16829 12.8604C6.40163 12.3004 5.67496 11.6804 4.98163 10.9937C4.29496 10.3004 3.67496 9.57374 3.12163 8.81374C2.57496 8.05374 2.13496 7.29374 1.81496 6.54041C1.49496 5.78041 1.33496 5.05374 1.33496 4.36041C1.33496 3.90707 1.41496 3.47374 1.57496 3.07374C1.73496 2.66707 1.98829 2.29374 2.34163 1.96041C2.76829 1.54041 3.23496 1.33374 3.72829 1.33374C3.91496 1.33374 4.10163 1.37374 4.26829 1.45374C4.44163 1.53374 4.59496 1.65374 4.71496 1.82707L6.26163 4.00707C6.38163 4.17374 6.46829 4.32707 6.52829 4.47374C6.58829 4.61374 6.62163 4.75374 6.62163 4.88041C6.62163 5.04041 6.57496 5.20041 6.48163 5.35374C6.39496 5.50707 6.26829 5.66707 6.10829 5.82707L5.60163 6.35374C5.52829 6.42707 5.49496 6.51374 5.49496 6.62041C5.49496 6.67374 5.50163 6.72041 5.51496 6.77374C5.53496 6.82707 5.55496 6.86707 5.56829 6.90707C5.68829 7.12707 5.89496 7.41374 6.18829 7.76041C6.48829 8.10707 6.80829 8.46041 7.15496 8.81374C7.51496 9.16707 7.86163 9.49374 8.21496 9.79374C8.56163 10.0871 8.84829 10.2871 9.07496 10.4071C9.10829 10.4204 9.14829 10.4404 9.19496 10.4604C9.24829 10.4804 9.30163 10.4871 9.36163 10.4871C9.47496 10.4871 9.56163 10.4471 9.63496 10.3737L10.1416 9.87374C10.3083 9.70707 10.4683 9.58041 10.6216 9.50041C10.775 9.40707 10.9283 9.36041 11.095 9.36041C11.2216 9.36041 11.355 9.38707 11.5016 9.44707C11.6483 9.50707 11.8016 9.59374 11.9683 9.70707L14.175 11.2737C14.3483 11.3937 14.4683 11.5337 14.5416 11.7004C14.6083 11.8671 14.6483 12.0337 14.6483 12.2204Z" stroke="#292D32" stroke-miterlimit="10"/>
<path d="M12.3353 6.00033C12.3353 5.60033 12.022 4.98699 11.5553 4.48699C11.1286 4.02699 10.562 3.66699 10.002 3.66699" stroke="#292D32" stroke-linecap="round" stroke-linejoin="round"/>
<path d="M14.6686 6.00041C14.6686 3.42041 12.582 1.33374 10.002 1.33374" stroke="#292D32" stroke-linecap="round" stroke-linejoin="round"/>
</svg>
