<svg width="24" height="24" viewBox="0 0 24 24" fill="none" xmlns="http://www.w3.org/2000/svg">
<path opacity="0.4" d="M11.9996 21.93C6.95961 21.93 2.84961 17.83 2.84961 12.78V10.9C2.84961 10.51 3.16961 10.2 3.54961 10.2C3.92961 10.2 4.24961 10.52 4.24961 10.9V12.78C4.24961 17.05 7.71961 20.52 11.9896 20.52C16.2596 20.52 19.7296 17.05 19.7296 12.78V10.9C19.7296 10.51 20.0496 10.2 20.4296 10.2C20.8096 10.2 21.1296 10.52 21.1296 10.9V12.78C21.1496 17.83 17.0396 21.93 11.9996 21.93Z" fill="#292D32"/>
<path d="M12.0004 2C8.64039 2 5.90039 4.74 5.90039 8.1V12.79C5.90039 16.15 8.64039 18.89 12.0004 18.89C15.3604 18.89 18.1004 16.15 18.1004 12.79V8.1C18.1004 4.74 15.3604 2 12.0004 2ZM14.1804 10.59C14.1104 10.86 13.8604 11.04 13.5904 11.04C13.5404 11.04 13.4804 11.03 13.4304 11.02C12.4104 10.74 11.3304 10.74 10.3104 11.02C9.98039 11.11 9.65039 10.92 9.56039 10.59C9.47039 10.27 9.66039 9.93 9.99039 9.84C11.2204 9.5 12.5204 9.5 13.7504 9.84C14.0804 9.93 14.2704 10.26 14.1804 10.59ZM15.0304 7.82C14.9404 8.07 14.7104 8.22 14.4604 8.22C14.3904 8.22 14.3204 8.21 14.2504 8.18C12.7204 7.62 11.0404 7.62 9.51039 8.18C9.19039 8.3 8.84039 8.14 8.72039 7.82C8.61039 7.51 8.77039 7.16 9.09039 7.04C10.8904 6.39 12.8704 6.39 14.6604 7.04C14.9804 7.16 15.1404 7.51 15.0304 7.82Z" fill="#292D32"/>
</svg>
