<svg width="13" height="13" viewBox="0 0 13 13" fill="none" xmlns="http://www.w3.org/2000/svg">
<g clip-path="url(#clip0_920_26794)">
<path d="M1.08301 2.70801H5.41634" stroke="black" stroke-width="0.8125" stroke-linecap="round"/>
<path d="M1.08301 10.292H5.41634" stroke="black" stroke-width="0.8125" stroke-linecap="round"/>
<path d="M7.58301 6.5H11.9163" stroke="black" stroke-width="0.8125" stroke-linecap="round"/>
<path d="M10.292 2.70801H11.917" stroke="black" stroke-width="0.8125" stroke-linecap="round"/>
<path d="M10.292 10.292H11.917" stroke="black" stroke-width="0.8125" stroke-linecap="round"/>
<path d="M1.08301 6.5H2.70801" stroke="black" stroke-width="0.8125" stroke-linecap="round"/>
<path d="M8.66699 1.08301C7.7695 1.08301 7.04199 1.81055 7.04199 2.70801C7.04199 3.60547 7.7695 4.33301 8.66699 4.33301C9.56448 4.33301 10.292 3.60547 10.292 2.70801C10.292 1.81055 9.56448 1.08301 8.66699 1.08301Z" stroke="black" stroke-width="0.8125" stroke-linecap="round"/>
<path d="M8.66699 8.66699C7.7695 8.66699 7.04199 9.3945 7.04199 10.292C7.04199 11.1895 7.7695 11.917 8.66699 11.917C9.56448 11.917 10.292 11.1895 10.292 10.292C10.292 9.3945 9.56448 8.66699 8.66699 8.66699Z" stroke="black" stroke-width="0.8125" stroke-linecap="round"/>
<path d="M4.33301 4.875C3.43555 4.875 2.70801 5.60251 2.70801 6.5C2.70801 7.39749 3.43555 8.125 4.33301 8.125C5.23047 8.125 5.95801 7.39749 5.95801 6.5C5.95801 5.60251 5.23047 4.875 4.33301 4.875Z" stroke="black" stroke-width="0.8125" stroke-linecap="round"/>
</g>
<defs>
<clipPath id="clip0_920_26794">
<rect width="13" height="13" fill="white"/>
</clipPath>
</defs>
</svg>
