<svg width="10" height="2" viewBox="0 0 10 2" fill="none" xmlns="http://www.w3.org/2000/svg">
<path fill-rule="evenodd" clip-rule="evenodd" d="M1.334 0.667318C1.334 1.03552 1.03553 1.33398 0.667333 1.33398C0.299147 1.33398 -1.30464e-08 1.03552 -2.91409e-08 0.667318C-4.52355e-08 0.299118 0.29848 0.000650989 0.666667 0.000650973C1.03486 0.000650957 1.334 0.299118 1.334 0.667318Z" fill="black"/>
<path fill-rule="evenodd" clip-rule="evenodd" d="M5.334 0.667318C5.334 1.03552 5.03553 1.33398 4.66733 1.33398L4.66667 1.33398C4.29847 1.33398 4 1.03552 4 0.667318C4 0.299118 4.29847 0.000650989 4.66667 0.000650973L4.66733 0.000650973C5.03553 0.000650957 5.334 0.299118 5.334 0.667318Z" fill="black"/>
<path fill-rule="evenodd" clip-rule="evenodd" d="M9.33498 0.667318C9.33498 1.03552 9.03651 1.33398 8.66831 1.33398C8.30018 1.33398 8.00098 1.03552 8.00098 0.667318C8.00098 0.299118 8.29951 0.000650989 8.66764 0.000650973C9.03584 0.000650957 9.33498 0.299118 9.33498 0.667318Z" fill="black"/>
</svg>
