<svg width="16" height="16" viewBox="0 0 16 16" fill="none" xmlns="http://www.w3.org/2000/svg">
<path d="M8.35691 13.6134H4.14358C2.03691 13.6134 1.33691 12.2134 1.33691 10.8067V5.19339C1.33691 3.08672 2.03691 2.38672 4.14358 2.38672H8.35691C10.4636 2.38672 11.1636 3.08672 11.1636 5.19339V10.8067C11.1636 12.9134 10.4569 13.6134 8.35691 13.6134Z" stroke="#292D32" stroke-linecap="round" stroke-linejoin="round"/>
<path d="M13.0164 11.4001L11.1631 10.1001V5.89342L13.0164 4.59342C13.9231 3.96009 14.6698 4.34675 14.6698 5.46009V10.5401C14.6698 11.6534 13.9231 12.0401 13.0164 11.4001Z" stroke="#292D32" stroke-linecap="round" stroke-linejoin="round"/>
<path d="M7.6709 7.33325C8.22318 7.33325 8.6709 6.88554 8.6709 6.33325C8.6709 5.78097 8.22318 5.33325 7.6709 5.33325C7.11861 5.33325 6.6709 5.78097 6.6709 6.33325C6.6709 6.88554 7.11861 7.33325 7.6709 7.33325Z" stroke="#292D32" stroke-linecap="round" stroke-linejoin="round"/>
</svg>
