<svg width="20" height="20" viewBox="0 0 20 20" fill="none" xmlns="http://www.w3.org/2000/svg">
<path d="M13.4496 2.4667L5.92461 4.9667C0.866276 6.65837 0.866276 9.4167 5.92461 11.1L8.15794 11.8417L8.89961 14.075C10.5829 19.1334 13.3496 19.1334 15.0329 14.075L17.5413 6.55837C18.6579 3.18337 16.8246 1.3417 13.4496 2.4667ZM13.7163 6.95004L10.5496 10.1334C10.4246 10.2584 10.2663 10.3167 10.1079 10.3167C9.94961 10.3167 9.79128 10.2584 9.66628 10.1334C9.42461 9.8917 9.42461 9.4917 9.66628 9.25004L12.8329 6.0667C13.0746 5.82504 13.4746 5.82504 13.7163 6.0667C13.9579 6.30837 13.9579 6.70837 13.7163 6.95004Z" fill="#6A6A6A"/>
</svg>
