<svg width="24" height="24" viewBox="0 0 24 24" fill="none" xmlns="http://www.w3.org/2000/svg">
<path d="M18.0703 8.51001L9.51026 4.23001C3.76026 1.35001 1.40026 3.71001 4.28026 9.46001L5.15026 11.2C5.40026 11.71 5.40026 12.3 5.15026 12.81L4.28026 14.54C1.40026 20.29 3.75026 22.65 9.51026 19.77L18.0703 15.49C21.9103 13.57 21.9103 10.43 18.0703 8.51001ZM14.8403 12.75H9.44026C9.03026 12.75 8.69026 12.41 8.69026 12C8.69026 11.59 9.03026 11.25 9.44026 11.25H14.8403C15.2503 11.25 15.5903 11.59 15.5903 12C15.5903 12.41 15.2503 12.75 14.8403 12.75Z" fill="black"/>
</svg>
