<svg width="24" height="24" viewBox="0 0 24 24" fill="none" xmlns="http://www.w3.org/2000/svg">
<path fill-rule="evenodd" clip-rule="evenodd" d="M10.1389 3.46333C10.6122 1.51222 13.3878 1.51222 13.8611 3.46333C14 4.5 15.5 5.5 16.72 4.64778C18.4344 3.60333 20.3978 5.56556 19.3533 7.28111C18.6656 8.41079 19.3225 9.84435 20.5367 10.1389C22.4878 10.6122 22.4878 13.3878 20.5367 13.8611C19.1979 14.1859 18.721 15.6838 19.3522 16.72C20.3967 18.4344 18.4344 20.3978 16.7189 19.3533C15.5957 18.6695 14.25 19.25 13.8611 20.5367C13.3878 22.4878 10.6122 22.4878 10.1389 20.5367C9.82232 19.3522 8.5 18.65 7.28 19.3522C5.56556 20.3967 3.60222 18.4344 4.64667 16.7189C5.23044 15.76 4.88954 14.2071 3.46333 13.8611C1.51222 13.3878 1.51222 10.6122 3.46333 10.1389C5.15 9.6 5.1 8 4.64778 7.28C3.60333 5.56556 5.56556 3.60222 7.28111 4.64667C8.39222 5.32222 9.83222 4.72444 10.1389 3.46333ZM9.25 12C9.25 13.5188 10.4812 14.75 12 14.75C13.5188 14.75 14.75 13.5188 14.75 12C14.75 10.4812 13.5188 9.25 12 9.25C10.4812 9.25 9.25 10.4812 9.25 12ZM12 16.25C9.65279 16.25 7.75 14.3472 7.75 12C7.75 9.65279 9.65279 7.75 12 7.75C14.3472 7.75 16.25 9.65279 16.25 12C16.25 14.3472 14.3472 16.25 12 16.25Z" fill="#0071FF"/>
</svg>
