<svg width="24" height="24" viewBox="0 0 24 24" fill="none" xmlns="http://www.w3.org/2000/svg">
<path opacity="0.32" d="M4 13.25V15C4 17.5 4 22 9.99994 22H14C20 22 20 17.5 20 15V13.25H4Z" fill="#9FE870"/>
<path fill-rule="evenodd" clip-rule="evenodd" d="M8.25 18C8.25 17.5858 8.58579 17.25 9 17.25H15C15.4142 17.25 15.75 17.5858 15.75 18C15.75 18.4142 15.4142 18.75 15 18.75H9C8.58579 18.75 8.25 18.4142 8.25 18Z" fill="#9FE870"/>
<path d="M16.2857 4.74376L22 12H2L7.71429 4.74376C10.3333 1.08541 13.6667 1.08541 16.2857 4.74376Z" fill="#9FE870"/>
</svg>
