<svg width="20" height="20" viewBox="0 0 20 20" fill="none" xmlns="http://www.w3.org/2000/svg">
<path d="M17.5 4.98307C14.725 4.70807 11.9333 4.56641 9.15 4.56641C7.5 4.56641 5.85 4.64974 4.2 4.81641L2.5 4.98307" stroke="#292D32" stroke-width="1.5" stroke-linecap="round" stroke-linejoin="round"/>
<path d="M7.08594 4.14102L7.26927 3.04935C7.4026 2.25768 7.5026 1.66602 8.91094 1.66602H11.0943C12.5026 1.66602 12.6109 2.29102 12.7359 3.05768L12.9193 4.14102" stroke="#292D32" stroke-width="1.5" stroke-linecap="round" stroke-linejoin="round"/>
<path d="M15.7057 7.61719L15.1641 16.0089C15.0724 17.3172 14.9974 18.3339 12.6724 18.3339H7.3224C4.9974 18.3339 4.9224 17.3172 4.83073 16.0089L4.28906 7.61719" stroke="#292D32" stroke-width="1.5" stroke-linecap="round" stroke-linejoin="round"/>
<path d="M8.60938 13.75H11.3844" stroke="#292D32" stroke-width="1.5" stroke-linecap="round" stroke-linejoin="round"/>
<path d="M7.91406 10.416H12.0807" stroke="#292D32" stroke-width="1.5" stroke-linecap="round" stroke-linejoin="round"/>
</svg>
