<svg width="24" height="24" viewBox="0 0 24 24" fill="none" xmlns="http://www.w3.org/2000/svg">
<path opacity="0.32" fill-rule="evenodd" clip-rule="evenodd" d="M2 13V11C2 7.5 2 2 10 2H14C22 2 22 7.5 22 11V13C22 13.3821 22 13.788 21.9896 14.208C19.4627 13.4155 17.1759 13.5665 15.3569 14.1156C13.5208 14.6698 12.1169 15.6446 11.4284 16.5135C10.6682 16.01 9.86954 15.6064 9.06534 15.2884C6.47043 14.262 3.77878 14.1074 2.01435 14.351C2 13.8801 2 13.4253 2 13Z" fill="black"/>
<path d="M8.5 6C7.11929 6 6 7.11929 6 8.5C6 9.88071 7.11929 11 8.5 11C9.88071 11 11 9.88071 11 8.5C11 7.11929 9.88071 6 8.5 6Z" fill="black"/>
<path fill-rule="evenodd" clip-rule="evenodd" d="M12.625 17.4207C13.8929 18.5221 14.981 19.9681 15.7015 21.8414C15.7095 21.8622 15.7165 21.883 15.7225 21.9039C20.3744 21.3516 21.5799 18.5024 21.8923 15.7499L21.786 15.7181L21.7742 15.7145L21.7624 15.7106C19.4556 14.9347 17.3977 15.0666 15.7919 15.5513C14.1985 16.0323 13.0925 16.8463 12.625 17.4207Z" fill="black"/>
<path fill-rule="evenodd" clip-rule="evenodd" d="M2.12109 15.8513C2.48957 18.8847 3.97905 22.0001 9.99998 22.0001H14C14.0486 22.0001 14.0969 21.9999 14.1449 21.9995C12.9482 19.2199 10.7911 17.5841 8.51363 16.6833C6.11907 15.7362 3.63335 15.6216 2.12109 15.8513Z" fill="black"/>
</svg>
