<svg width="24" height="24" viewBox="0 0 24 24" fill="none" xmlns="http://www.w3.org/2000/svg">
<path opacity="0.32" d="M2 11V13C2 15.5 2 20 7.99994 20H12C18 20 18 15.5 18 13V11C18 8.5 18 4 12 4H7.99989C2.00006 4 2 8.5 2 11Z" fill="black"/>
<path d="M6 10C6 11.1046 6.89543 12 8 12C9.10457 12 10 11.1046 10 10C10 8.89543 9.10457 8 8 8C6.89543 8 6 8.89543 6 10Z" fill="black"/>
<path fill-rule="evenodd" clip-rule="evenodd" d="M19.1016 15.5285C19.2493 14.6227 19.2493 13.7262 19.2493 12.9989V10.9989C19.2493 10.2716 19.2493 9.37501 19.1016 8.46921C20.1293 7.53355 21.9993 8.06492 21.9993 9.99883V13.9989C21.9993 15.9328 20.1293 16.4642 19.1016 15.5285Z" fill="black"/>
</svg>
